<svg xmlns="http://www.w3.org/2000/svg" viewBox="0 0 880 580">
  <!-- Background -->
  <rect width="100%" height="100%" fill="#f8f9fc"/>

  <!-- Title -->
<text x="400" y="40"
      font-family="Arial, sans-serif"
      font-size="22"
      text-anchor="middle"
      fill="#0a1733"
      font-weight="bold">
  Distance to Closest Record (DCR) (Toy Example in 2D)
</text>

  <!-- Plot Area -->
  <g transform="translate(70,90)">
    <rect width="520" height="420" fill="#ffffff" stroke="#d0d0d0" stroke-width="1" rx="8" ry="8"/>

    <!-- Grid -->
    <g stroke="#e0e0e0" stroke-width="1">
      <line x1="0" y1="84" x2="520" y2="84"/>
      <line x1="0" y1="168" x2="520" y2="168"/>
      <line x1="0" y1="252" x2="520" y2="252"/>
      <line x1="0" y1="336" x2="520" y2="336"/>
      <line x1="104" y1="0" x2="104" y2="420"/>
      <line x1="208" y1="0" x2="208" y2="420"/>
      <line x1="312" y1="0" x2="312" y2="420"/>
      <line x1="416" y1="0" x2="416" y2="420"/>
    </g>

    <!-- Axes -->
    <line x1="0" y1="420" x2="520" y2="420" stroke="#2a324b" stroke-width="2"/>
    <line x1="0" y1="0"   x2="0"   y2="420" stroke="#2a324b" stroke-width="2"/>

    <!-- Axis Labels -->
    <text x="260" y="460" font-family="Arial, sans-serif" font-size="20" text-anchor="middle" fill="#2a324b" font-weight="bold">Feature X</text>
    <text x="-40" y="210" font-family="Arial, sans-serif" font-size="20" text-anchor="middle" fill="#2a324b" font-weight="bold" transform="rotate(-90,-40,210)">Feature Y</text>


    
    <!-- Real Data -->
    <g id="real-data" fill="#102040" opacity="0.9">
      <circle cx="70"  cy="250" r="12"/>
      <circle cx="270" cy="200" r="12"/>
      <circle cx="240" cy="380" r="12"/>
      <circle cx="400" cy="330" r="12"/>
      <circle cx="120" cy="350" r="12"/>
    </g>

    <!-- Synthetic Data -->
    <g id="synthetic-data" fill="#0099cc" opacity="0.9">
      <circle cx="50"  cy="180" r="8"/>
      <circle cx="200" cy="140" r="8"/>
      <circle cx="330" cy="270" r="8"/>
      <circle cx="450" cy="290" r="8"/>
      <circle cx="150" cy="300" r="8"/>
      <circle cx="100" cy="380" r="8"/>
    </g>

    <!-- DCR Arrows (straight, dashed, behind circles) -->
    <defs>
      <marker id="arrowhead" markerUnits="strokeWidth" markerWidth="4" markerHeight="4" refX="0" refY="2" orient="auto">
        <path d="M0,0 L4,2 L0,4 Z" fill="#e63946"/>
      </marker>
    </defs>
<g id="dcr-connections" stroke="#e63946" stroke-width="2" stroke-linecap="round" stroke-dasharray="4,2" stroke-opacity="0.8" fill="none">
  <!-- S1 -> R1 -->
  <line x1="50"  y1="180" x2="66.70"  y2="238.46"  marker-end="url(#arrowhead)"/>
  <!-- S2 -> R2 -->
  <line x1="200" y1="140" x2="260.89" y2="192.19" marker-end="url(#arrowhead)"/>
  <!-- S3 -> R2 -->
  <line x1="330" y1="270" x2="277.81" y2="209.11" marker-end="url(#arrowhead)"/>
  <!-- S4 -> R4 -->
  <line x1="450" y1="290" x2="409.37" y2="322.50" marker-end="url(#arrowhead)"/>
  <!-- S5 -> R5 -->
  <line x1="150" y1="300" x2="126.17" y2="339.71" marker-end="url(#arrowhead)"/>
  <!-- S6 -> R5 -->
  <line x1="100" y1="380" x2="113.34" y2="359.99" marker-end="url(#arrowhead)"/>
</g>

    
    <!-- Point Labels -->
    <g fill="#333333" font-family="Arial, sans-serif" font-size="12">
      <text x="70" y="240" text-anchor="end">R1</text>
      <text x="270" y="190" text-anchor="end">R2</text>
      <text x="240" y="370" text-anchor="end">R3</text>
      <text x="400" y="320" text-anchor="end">R4</text>
      <text x="120" y="340" text-anchor="end">R5</text>
      
      <text x="50" y="170" text-anchor="start">S1</text>
      <text x="200" y="130" text-anchor="start">S2</text>
      <text x="330" y="260" text-anchor="start">S3</text>
      <text x="450" y="280" text-anchor="start">S4</text>
      <text x="150" y="290" text-anchor="start">S5</text>
      <text x="100" y="370" text-anchor="start">S6</text>
    </g>

  </g>

  <!-- Legend Box -->
  <g transform="translate(620,90)">
    <rect width="240" height="170" fill="#ffffff" stroke="#d0d0d0" stroke-width="1" rx="8" ry="8"/>
    <text x="120" y="30" font-family="Arial, sans-serif" font-size="20" text-anchor="middle" fill="#0a1733" font-weight="bold">Legend</text>
    <g font-family="Arial, sans-serif" font-size="16">
      <circle cx="30"  cy="60" r="12" fill="#102040" opacity="0.9"/>
      <text x="55" y="65" fill="#2a324b">Real Data (R)</text>
      <circle cx="30"  cy="95" r="8" fill="#0099cc" opacity="0.9"/>
      <text x="55" y="100" fill="#2a324b">Synthetic Data (S)</text>
      <line x1="20" y1="130" x2="40" y2="130" stroke="#e63946" stroke-width="2" stroke-linecap="round" stroke-dasharray="4,2" marker-end="url(#arrowhead)"/>
      <text x="55" y="135" fill="#e63946" font-weight="bold">DCR</text>
    </g>
  </g>

  <!-- Explanation Box -->
  <g transform="translate(620,280)">
    <rect width="240" height="230" fill="#ffffff" stroke="#d0d0d0" stroke-width="1" rx="8" ry="8"/>
    <text x="120" y="30" font-family="Arial, sans-serif" font-size="20" text-anchor="middle" fill="#0a1733" font-weight="bold">DCR Calculation</text>
    <g font-family="Arial, sans-serif" font-size="14" fill="#2a324b">
      <text x="20" y="60">For each synthetic data point (S):</text>
      <text x="30" y="85">1. Calculate distance to all real</text>
      <text x="30" y="105">   data points (R)</text>
      <text x="30" y="130">2. Find the minimum distance</text>
      <text x="30" y="155">3. DCR = minimum distance</text>
      <text x="20" y="185">Higher DCR = Better privacy</text>
      <text x="20" y="210">Lower DCR = Better utility</text>
    </g>
  </g>
</svg>