<?xml version="1.0" encoding="UTF-8" standalone="no"?>
<!-- <svg width="1200" height="600" xmlns="http://www.w3.org/2000/svg"> -->
<svg xmlns="http://www.w3.org/2000/svg" viewBox="60 60 1050 500">
 <rect x="60" y="60" width="1050" height="500" fill="#fff"/>
  <!-- Background -->
  <!-- <rect width="1000" height="600" fill="#f8f9fa" rx="10" ry="10"/> -->
  
  <!-- Title -->
  <text x="600" y="100" text-anchor="middle" font-family="Arial" font-size="24" font-weight="bold" fill="#333333">TabSyn Architecture for Flight Data Generation</text>
  
  <!-- Input label -->
  <text x="140" y="190" text-anchor="middle" font-family="Arial" font-size="18" font-weight="bold" fill="#0066cc">Flight Input Data</text>
  
  <!-- VAE ENCODER SECTION -->
  <rect x="220" y="120" width="220" height="200" fill="#ffe6e6" stroke="#cc3333" stroke-width="2" rx="8" ry="8"/>
  <text x="330" y="145" text-anchor="middle" font-family="Arial" font-size="16" font-weight="bold" fill="#cc3333">VAE Encoder</text>
  
  <!-- Tokenizer component -->
  <rect x="240" y="165" width="180" height="60" fill="#ffffff" stroke="#cc3333" stroke-width="1" rx="5" ry="5"/>
  <text x="330" y="185" text-anchor="middle" font-family="Arial" font-size="13" font-weight="bold">Column-wise Tokenizer</text>
  <text x="330" y="205" text-anchor="middle" font-family="Arial" font-size="11">Embeddings for both categorical</text>
  <text x="330" y="220" text-anchor="middle" font-family="Arial" font-size="11">and numerical features</text>
  
  <!-- Transformer component -->
  <rect x="240" y="240" width="180" height="60" fill="#ffffff" stroke="#cc3333" stroke-width="1" rx="5" ry="5"/>
  <text x="330" y="260" text-anchor="middle" font-family="Arial" font-size="13" font-weight="bold">Transformer Encoder</text>
  <text x="330" y="280" text-anchor="middle" font-family="Arial" font-size="11">Captures inter-column relations</text>
  <text x="330" y="295" text-anchor="middle" font-family="Arial" font-size="11">through self-attention</text>
  
  <!-- LATENT SPACE SECTION -->
  <rect x="460" y="120" width="200" height="240" fill="#e6f0ff" stroke="#3366cc" stroke-width="2" rx="8" ry="8"/>
  <text x="560" y="145" text-anchor="middle" font-family="Arial" font-size="16" font-weight="bold" fill="#3366cc">Latent Space</text>
  
  <!-- Embedding representation -->
  <rect x="480" y="165" width="160" height="50" fill="#ffffff" stroke="#3366cc" stroke-width="1" rx="5" ry="5"/>
  <text x="560" y="185" text-anchor="middle" font-family="Arial" font-size="13" font-weight="bold">Continuous Embeddings</text>
  <text x="560" y="205" text-anchor="middle" font-family="Arial" font-size="11">μ, σ (reparameterization trick)</text>
  
  <!-- Diffusion model -->
  <rect x="480" y="230" width="160" height="110" fill="#ffffff" stroke="#3366cc" stroke-width="1" rx="5" ry="5"/>
  <text x="560" y="250" text-anchor="middle" font-family="Arial" font-size="13" font-weight="bold">Diffusion Model</text>
  <text x="560" y="270" text-anchor="middle" font-family="Arial" font-size="11">Score-based denoising</text>
  <text x="560" y="290" text-anchor="middle" font-family="Arial" font-size="11">with linear noise schedule</text>
  <text x="560" y="310" text-anchor="middle" font-family="Arial" font-size="11">ε(t) = t (optimal for sampling)</text>
  <text x="560" y="330" text-anchor="middle" font-family="Arial" font-size="11">Less than 20 reverse steps</text>
  
  <!-- VAE DECODER SECTION -->
  <rect x="680" y="120" width="220" height="200" fill="#e6ffe6" stroke="#339933" stroke-width="2" rx="8" ry="8"/>
  <text x="790" y="145" text-anchor="middle" font-family="Arial" font-size="16" font-weight="bold" fill="#339933">VAE Decoder</text>
  
  <!-- Transformer decoder component -->
  <rect x="700" y="165" width="180" height="60" fill="#ffffff" stroke="#339933" stroke-width="1" rx="5" ry="5"/>
  <text x="790" y="185" text-anchor="middle" font-family="Arial" font-size="13" font-weight="bold">Transformer Decoder</text>
  <text x="790" y="205" text-anchor="middle" font-family="Arial" font-size="11">Reconstructs token-level</text>
  <text x="790" y="220" text-anchor="middle" font-family="Arial" font-size="11">representations</text>
  
  <!-- Detokenizer component -->
  <rect x="700" y="240" width="180" height="60" fill="#ffffff" stroke="#339933" stroke-width="1" rx="5" ry="5"/>
  <text x="790" y="260" text-anchor="middle" font-family="Arial" font-size="13" font-weight="bold">Column Detokenizer</text>
  <text x="790" y="280" text-anchor="middle" font-family="Arial" font-size="11">Converts embeddings back to</text>
  <text x="790" y="295" text-anchor="middle" font-family="Arial" font-size="11">original data types</text>
  
  <!-- Output label -->
  <text x="1000" y="190" text-anchor="middle" font-family="Arial" font-size="18" font-weight="bold" fill="#0066cc">Synthetic Flight Data</text>
  
  <!-- TRAINING/SAMPLING FLOW SECTION -->
  <rect x="200" y="380" width="700" height="160" fill="#f9f9f9" stroke="#666666" stroke-width="2" rx="8" ry="8"/>
  <text x="550" y="405" text-anchor="middle" font-family="Arial" font-size="16" font-weight="bold" fill="#333333">Training and Sampling Process</text>
  
  <!-- Training process -->
  <rect x="220" y="420" width="320" height="100" fill="#f0f8ff" stroke="#3366cc" stroke-width="1" rx="5" ry="5"/>
  <text x="380" y="440" text-anchor="middle" font-family="Arial" font-size="14" font-weight="bold" fill="#3366cc">Training Flow</text>
  
  <text x="230" y="460" font-family="Arial" font-size="12">1. Tokenize columns and encode into latent space</text>
  <text x="230" y="480" font-family="Arial" font-size="12">2. Train VAE with adaptive KL weighting (β-VAE)</text>
  <text x="230" y="500" font-family="Arial" font-size="12">3. Train diffusion model on latent embeddings</text>
  
  <!-- Sampling process -->
  <rect x="560" y="420" width="320" height="100" fill="#f0f8ff" stroke="#3366cc" stroke-width="1" rx="5" ry="5"/>
  <text x="720" y="440" text-anchor="middle" font-family="Arial" font-size="14" font-weight="bold" fill="#3366cc">Sampling Flow</text>
  
  <text x="570" y="460" font-family="Arial" font-size="12">1. Sample random noise from N(0,1)</text>
  <text x="570" y="480" font-family="Arial" font-size="12">2. Apply efficient reverse diffusion process</text>
  <text x="570" y="500" font-family="Arial" font-size="12">3. Decode latent vectors to synthetic flight data</text>
  
  <!-- Connection Arrows - Simple lines -->
  <!-- Input to encoder -->
  <line x1="190" y1="200" x2="220" y2="200" stroke="#555555" stroke-width="2"/>
  <polygon points="215,195 225,200 215,205" fill="#555555"/>
  
  <!-- Within encoder -->
  <line x1="330" y1="225" x2="330" y2="240" stroke="#cc3333" stroke-width="2"/>
  <polygon points="325,235 330,245 335,235" fill="#cc3333"/>
  
  <!-- Encoder to latent -->
  <line x1="440" y1="220" x2="480" y2="220" stroke="#555555" stroke-width="2"/>
  <polygon points="475,215 485,220 475,225" fill="#555555"/>
  
  <!-- Within latent -->
  <line x1="560" y1="215" x2="560" y2="230" stroke="#3366cc" stroke-width="2"/>
  <polygon points="555,225 560,235 565,225" fill="#3366cc"/>
  
  <!-- Latent to decoder -->
  <line x1="640" y1="220" x2="680" y2="220" stroke="#555555" stroke-width="2"/>
  <polygon points="675,215 685,220 675,225" fill="#555555"/>
  
  <!-- Within decoder -->
  <line x1="790" y1="225" x2="790" y2="240" stroke="#339933" stroke-width="2"/>
  <polygon points="785,235 790,245 795,235" fill="#339933"/>
  
  <!-- Decoder to output -->
  <line x1="900" y1="200" x2="930" y2="200" stroke="#555555" stroke-width="2"/>
  <polygon points="925,195 935,200 925,205" fill="#555555"/>
  
  <!-- SAMPLING FLOW - simplified paths -->
  <path d="M560,340 C560,360 480,360 480,380" stroke="#3366cc" stroke-width="2" stroke-dasharray="5,3" fill="none"/>
  <!-- <polygon points="475,375 485,385 485,375" fill="#3366cc"/> -->
  
  <path d="M720,420 C720,380 660,350 640,290" stroke="#3366cc" stroke-width="2" stroke-dasharray="5,3" fill="none"/>
  <!-- <polygon points="635,295 645,285 645,295" fill="#3366cc"/> -->
  
  <path d="M880,280 C880,320 880,380 800,420" stroke="#3366cc" stroke-width="2" stroke-dasharray="5,3" fill="none"/>
  <!-- <polygon points="795,415 805,425 805,415" fill="#3366cc"/> -->
</svg>